<svg width="737" height="392" viewBox="0 0 737 392" fill="none" xmlns="http://www.w3.org/2000/svg">
<path d="M704.376 336.83C693.768 345.881 681.895 351.428 670.46 354.834C669.925 354.98 669.389 355.126 668.854 355.272C668.319 355.418 667.783 355.564 667.2 355.71C648.514 360.625 631.434 359.944 623.551 359.701C428.324 353.521 309.299 429.918 148.378 357.267C143.95 355.272 139.522 353.18 134.996 350.942C128.038 347.487 109.157 338.144 87.6491 324.567C46.6281 298.631 -4.02786 257.269 0.25429 212.258C4.48778 167.685 60.7884 138.878 77.1384 130.508C163.122 86.47 209.642 138.586 317.523 106.178C386.427 85.4481 381.171 60.0958 461.072 39.9989C500.877 30.0234 582.919 9.39125 623.599 51.6775C650.947 80.1441 651.677 128.805 651.823 138.78C652.455 182.234 633.964 195.519 644.524 216.151C661.604 249.581 719.559 233.134 733.573 264.325C743.694 286.758 724.571 319.604 704.376 336.83Z" fill="#E3E3FF"/>
</svg>
