<svg width="737" height="392" viewBox="0 0 737 392" fill="none" xmlns="http://www.w3.org/2000/svg">
<path opacity="0.01" fill-rule="evenodd" clip-rule="evenodd" d="M126.9 390.602C166.167 390.602 198 390.672 198 389.252C198 387.832 166.167 387.903 126.9 387.903C87.6324 387.903 55.7998 387.832 55.7998 389.252C55.7998 390.672 87.6324 390.602 126.9 390.602Z" fill="black"/>
<path opacity="0.01" fill-rule="evenodd" clip-rule="evenodd" d="M50.4 118.801H50.1C49.7686 118.801 49.5 119.133 49.5 119.542V130.66C49.5 131.069 49.7686 131.401 50.1 131.401H50.4V118.801ZM50.4 146.701H50.1C49.7686 146.701 49.5 147.028 49.5 147.432V169.37C49.5 169.773 49.7686 170.101 50.1 170.101H50.4V146.701ZM50.1 174.601H50.4V198.001H50.1C49.7686 198.001 49.5 197.673 49.5 197.27V175.332C49.5 174.928 49.7686 174.601 50.1 174.601ZM204.6 145.801H204.3V169.201H204.6C204.931 169.201 205.2 168.873 205.2 168.47V146.532C205.2 146.128 204.931 145.801 204.6 145.801Z" fill="white"/>
<path fill-rule="evenodd" clip-rule="evenodd" d="M174.002 78.3008H79.7975C69.5753 78.3008 65.8685 79.3695 62.1314 81.3764C58.3944 83.3832 55.4615 86.3282 53.4629 90.0807C51.4642 93.8332 50.3999 97.5553 50.3999 107.82V359.282C50.3999 369.546 51.4642 373.268 53.4629 377.021C55.4615 380.773 58.3944 383.718 62.1314 385.725C65.8685 387.732 69.5753 388.801 79.7975 388.801H174.002C184.224 388.801 187.931 387.732 191.668 385.725C195.405 383.718 198.338 380.773 200.337 377.021C202.336 373.268 203.4 369.546 203.4 359.282V107.82C203.4 97.5553 202.336 93.8332 200.337 90.0807C198.338 86.3282 195.405 83.3832 191.668 81.3764C187.931 79.3695 184.224 78.3008 174.002 78.3008Z" fill="white"/>
<path fill-rule="evenodd" clip-rule="evenodd" d="M79.9704 78.3008H174.729C185.012 78.3008 188.74 79.3695 192.499 81.3764C196.258 83.3832 199.209 86.3282 201.219 90.0807C203.229 93.8332 204.3 97.5553 204.3 107.82V359.282C204.3 369.546 203.229 373.268 201.219 377.021C199.209 380.773 196.258 383.718 192.499 385.725C188.74 387.732 185.012 388.801 174.729 388.801H79.9704C69.6881 388.801 65.9595 387.732 62.2004 385.725C58.4414 383.718 55.4912 380.773 53.4809 377.021C51.4705 373.268 50.3999 369.546 50.3999 359.282V107.82C50.3999 97.5553 51.4705 93.8332 53.4809 90.0807C55.4912 86.3282 58.4414 83.3832 62.2004 81.3764C65.9595 79.3695 69.6881 78.3008 79.9704 78.3008Z" stroke="#2700D5" stroke-width="1.8"/>
<rect x="55.7998" y="83.6992" width="143.1" height="299.7" rx="18" stroke="#3A28DC" stroke-width="1.8"/>
<mask id="mask0" mask-type="alpha" maskUnits="userSpaceOnUse" x="55" y="83" width="144" height="301">
<path fill-rule="evenodd" clip-rule="evenodd" d="M75.3674 83.6992H179.332C186.136 83.6992 188.604 84.3844 191.091 85.6711C193.579 86.9578 195.531 88.846 196.861 91.2519C198.191 93.6578 198.9 96.0442 198.9 102.625V364.473C198.9 371.054 198.191 373.441 196.861 375.847C195.531 378.252 193.579 380.141 191.091 381.427C188.604 382.714 186.136 383.399 179.332 383.399H75.3674C68.5633 383.399 66.096 382.714 63.6085 381.427C61.1211 380.141 59.1689 378.252 57.8386 375.847C56.5082 373.441 55.7998 371.054 55.7998 364.473V102.625C55.7998 96.0442 56.5082 93.6578 57.8386 91.2519C59.1689 88.846 61.1211 86.9578 63.6085 85.6711C66.096 84.3844 68.5633 83.6992 75.3674 83.6992Z" fill="white"/>
</mask>
<g mask="url(#mask0)">
<rect x="71.0996" y="152.102" width="53.1" height="72.9" stroke="#2700D5" stroke-width="1.8"/>
<path d="M71.0996 152.102L124.2 225.002" stroke="#2700D5" stroke-width="0.9" stroke-linecap="square"/>
<path d="M124.2 152.102L71.0997 225.002" stroke="#2700D5" stroke-width="0.9" stroke-linecap="square"/>
<rect x="71.0996" y="126" width="53.1" height="9" stroke="#2700D5" stroke-width="1.8"/>
<rect x="71.0996" y="257.398" width="53.1" height="9" stroke="#2700D5" stroke-width="1.8"/>
<rect x="130.5" y="152.102" width="53.1" height="72.9" stroke="#2700D5" stroke-width="1.8"/>
<path d="M130.5 152.102L183.6 225.002" stroke="#2700D5" stroke-width="0.9" stroke-linecap="square"/>
<path d="M183.6 152.102L130.5 225.002" stroke="#2700D5" stroke-width="0.9" stroke-linecap="square"/>
<rect x="189.899" y="152.102" width="53.1" height="72.9" stroke="#2700D5" stroke-width="1.8"/>
<path d="M189.899 152.102L242.999 225.002" stroke="#2700D5" stroke-width="0.9" stroke-linecap="square"/>
<path d="M243 152.102L189.9 225.002" stroke="#2700D5" stroke-width="0.9" stroke-linecap="square"/>
<rect x="71.0996" y="283.5" width="112.5" height="72.9" stroke="#2700D5" stroke-width="1.8"/>
<path d="M71.0996 283.5L183.6 356.4" stroke="#2700D5" stroke-width="0.9" stroke-linecap="square"/>
<path d="M183.6 283.5L71.0996 356.4" stroke="#2700D5" stroke-width="0.9" stroke-linecap="square"/>
<rect x="71.0996" y="362.699" width="112.5" height="72.9" stroke="#2700D5" stroke-width="1.8"/>
<path d="M71.0996 362.699L183.6 435.599" stroke="#2700D5" stroke-width="0.9" stroke-linecap="square"/>
<path d="M183.6 362.699L71.0996 435.599" stroke="#2700D5" stroke-width="0.9" stroke-linecap="square"/>
</g>
<path fill-rule="evenodd" clip-rule="evenodd" d="M90 87.2992V83.6992H165.6V87.2992C165.6 87.2992 165.6 88.1428 165.6 88.7392H165.593C165.54 91.6783 165.176 92.8585 164.537 94.0475C163.844 95.3382 162.826 96.3511 161.529 97.0414C160.232 97.7316 158.946 98.0992 155.398 98.0992H100.202C96.6543 98.0992 95.3679 97.7316 94.0711 97.0414C92.7742 96.3511 91.7565 95.3382 91.0629 94.0475C90.4239 92.8585 90.0602 91.6783 90.0068 88.7392H90C90 88.1428 90 87.2992 90 87.2992Z" stroke="#2700D5" stroke-width="1.8"/>
</svg>
