<svg width="737" height="390" viewBox="0 0 737 390" fill="none" xmlns="http://www.w3.org/2000/svg">
<rect x="163.8" y="1" width="471.744" height="361.908" rx="20.736" fill="white" stroke="#2700D5" stroke-width="1.8"/>
<rect x="178.38" y="15.5781" width="442.584" height="331.776" rx="6.48" fill="white"/>
<mask id="mask0" mask-type="alpha" maskUnits="userSpaceOnUse" x="178" y="15" width="443" height="333">
<rect x="178.38" y="15.5781" width="442.584" height="331.776" rx="6.48" fill="white"/>
</mask>
<g mask="url(#mask0)">
</g>
<rect x="343.944" y="342.82" width="111.456" height="1.62" rx="0.81" fill="white"/>
<rect x="171" y="8.19922" width="442.8" height="349.2" rx="13.2" fill="white" stroke="#2700D5" stroke-width="1.8"/>
<path d="M260.1 8.19922V357.399" stroke="#2700D5" stroke-width="1.8" stroke-linecap="square"/>
<rect x="524.1" y="78.4023" width="67.5" height="92.7" stroke="#2700D5" stroke-width="1.8"/>
<path d="M524.1 78.4023L591.6 171.102" stroke="#2700D5" stroke-width="0.9" stroke-linecap="square"/>
<path d="M591.6 78.4023L524.1 171.102" stroke="#2700D5" stroke-width="0.9" stroke-linecap="square"/>
<rect x="448.1" y="78.4023" width="67.5" height="92.7" stroke="#2700D5" stroke-width="1.8"/>
<path d="M448.1 78.4023L515.6 171.102" stroke="#2700D5" stroke-width="0.9" stroke-linecap="square"/>
<path d="M515.6 78.4023L448.1 171.102" stroke="#2700D5" stroke-width="0.9" stroke-linecap="square"/>
<rect x="372.1" y="78.4023" width="67.5" height="92.7" stroke="#2700D5" stroke-width="1.8"/>
<path d="M372.1 78.4023L439.6 171.102" stroke="#2700D5" stroke-width="0.9" stroke-linecap="square"/>
<path d="M439.6 78.4023L372.1 171.102" stroke="#2700D5" stroke-width="0.9" stroke-linecap="square"/>
<rect x="296.1" y="78.4023" width="67.5" height="92.7" stroke="#2700D5" stroke-width="1.8"/>
<path d="M296.1 78.4023L363.6 171.102" stroke="#2700D5" stroke-width="0.9" stroke-linecap="square"/>
<path d="M363.6 78.4023L296.1 171.102" stroke="#2700D5" stroke-width="0.9" stroke-linecap="square"/>
<rect x="296.1" y="52.3008" width="56.7" height="11.7" stroke="#2700D5" stroke-width="1.8"/>
<rect x="296.1" y="199.902" width="56.7" height="11.7" stroke="#2700D5" stroke-width="1.8"/>
<rect x="190.8" y="53.1992" width="50" height="12" stroke="#2700D5" stroke-width="1.8"/>
<rect x="190.8" y="122.199" width="50" height="12" stroke="#2700D5" stroke-width="1.8"/>
<rect x="190.8" y="99.1992" width="50" height="12" stroke="#2700D5" stroke-width="1.8"/>
<rect x="190.8" y="76.1992" width="50" height="12" stroke="#2700D5" stroke-width="1.8"/>
<rect x="296.1" y="226" width="180.9" height="92.7" stroke="#2700D5" stroke-width="1.8"/>
<path d="M297.559 226.543L476.953 318.897" stroke="#2700D5" stroke-width="0.9" stroke-linecap="square"/>
<path d="M476.953 226.543L297.559 318.897" stroke="#2700D5" stroke-width="0.9" stroke-linecap="square"/>
<rect x="484.2" y="226" width="103.5" height="92.7" stroke="#2700D5" stroke-width="1.8"/>
<path d="M484.2 226L587.7 318.7" stroke="#2700D5" stroke-width="0.9" stroke-linecap="square"/>
<path d="M587.7 226L484.2 318.7" stroke="#2700D5" stroke-width="0.9" stroke-linecap="square"/>
</svg>
